<?xml version="1.0" encoding="UTF-8"?>
<svg class="icon icon-editor-code" width="60" height="52" viewBox="0 0 60 52" xmlns="http://www.w3.org/2000/svg" xmlns:xlink="http://www.w3.org/1999/xlink">
<g fill="none">
<path class="monitor" d="M58.25 42.278c0 1.925-1.46 3.472-3.25 3.472H5c-1.788 0-3.25-1.548-3.25-3.472V5.223C1.75 3.297 3.21 1.75 5 1.75h50c1.79 0 3.25 1.546 3.25 3.473v37.055zm1 0V5.223C59.25 2.756 57.356.75 55 .75H5C2.646.75.75 2.757.75 5.223v37.055c0 2.464 1.897 4.472 4.25 4.472h50c2.355 0 4.25-2.007 4.25-4.472zM12.5 51.75h35c.276 0 .5-.224.5-.5s-.224-.5-.5-.5h-35c-.276 0-.5.224-.5.5s.224.5.5.5zm17-5.5v5c0 .276.224.5.5.5s.5-.224.5-.5v-5c0-.276-.224-.5-.5-.5s-.5.224-.5.5zm1.25-5c0 .414-.336.75-.75.75s-.75-.336-.75-.75.336-.75.75-.75.75.336.75.75zm1 0c0-.966-.784-1.75-1.75-1.75s-1.75.784-1.75 1.75S29.034 43 30 43s1.75-.784 1.75-1.75zm-30.5-4.5h57.5v-1H1.25v1z" fill="#445B6C"></path><path class="content" d="M23.742 12.985v12c0 .276-.224.5-.5.5s-.5-.224-.5-.5v-12H20.25c-.277 0-.5-.224-.5-.5s.223-.5.5-.5h5.98c.275 0 .5.224.5.5s-.225.5-.5.5h-2.49zm-14.524 6.25v5.75c0 .276-.224.5-.5.5s-.5-.224-.5-.5v-12.5c0-.276.224-.5.5-.5s.5.224.5.5v5.75h4.977v-5.75c0-.276.224-.5.5-.5s.5.224.5.5v12.5c0 .276-.224.5-.5.5s-.5-.224-.5-.5v-5.75H9.218zm30.92 5.75v-12.5c0-.5-.652-.69-.92-.268l-3.983 6.25h.843l-3.98-6.25c-.27-.422-.922-.232-.922.268v12.5c0 .276.224.5.5.5s.5-.224.5-.5v-12.5l-.92.27 3.98 6.25c.195.307.645.307.842 0l3.982-6.25-.92-.27v12.5c0 .276.223.5.5.5.275 0 .5-.224.5-.5zm11.144-.5h-5.978l.5.5v-12.5c0-.276-.224-.5-.5-.5s-.5.224-.5.5v12.5c0 .276.224.5.5.5h5.978c.276 0 .5-.224.5-.5s-.224-.5-.5-.5z" fill="#1A82E2"></path></g></svg>