<?xml version="1.0" encoding="UTF-8"?>
<svg width="60px" height="47px" viewBox="0 0 60 47" version="1.1" xmlns="http://www.w3.org/2000/svg" xmlns:xlink="http://www.w3.org/1999/xlink">
    <title>button/campaign/brochure-deselected</title>
    <g id="button/campaign/brochure-deselected" stroke="none" stroke-width="1" fill="none" fill-rule="evenodd">
        <rect id="Rectangle" fill="#CFCFCF" x="0" y="0" width="59.8499995" height="47.2499996" rx="5"></rect>
        <g id="brochure-plain" transform="translate(15.000000, 13.000000)" stroke="#FFFFFF">
            <line x1="14.5384614" y1="1.78499999" x2="14.5384614" y2="20.2299998" id="Path" stroke-width="1.25999999"></line>
            <path d="M21.8076921,0 C17.7853845,0 14.5384614,1.22966666 14.5384614,3.01466664 C14.5384614,1.22966666 11.2915384,0 7.26923071,0 C3.24692305,0 0,1.22966666 0,3.01466664 L0,21.4199998 C0,19.6349999 3.24692305,18.2466665 7.26923071,18.2466665 C11.2915384,18.2466665 14.5384614,19.6349999 14.5384614,21.4199998 C14.5384614,19.6349999 17.7853845,18.2466665 21.8076921,18.2466665 C25.8299998,18.2466665 29.0769229,19.6349999 29.0769229,21.4199998 L29.0769229,3.01466664 C29.0769229,1.22966666 25.8299998,0 21.8076921,0 Z" id="Path" stroke-width="2" stroke-linecap="square"></path>
            <g id="Group" transform="translate(18.093037, 11.057652)" stroke-linecap="round" stroke-linejoin="round" stroke-width="1.25999999">
                <path d="M0,2.97499998 C1.54092547,4.0981299 6.43359159,4.0981299 7.99615379,2.97499998" id="Path-2" transform="translate(3.998077, 3.396174) scale(1, -1) translate(-3.998077, -3.396174) "></path>
                <path d="M0,0 C1.54092547,1.12312992 6.43359159,1.12312992 7.99615379,0" id="Path-2" transform="translate(3.998077, 0.421174) scale(1, -1) translate(-3.998077, -0.421174) "></path>
            </g>
            <g id="Group" transform="translate(3.554576, 1.537652)" stroke-linecap="round" stroke-linejoin="round" stroke-width="1.25999999">
                <path d="M0,2.97499998 C1.54092547,4.0981299 6.43359159,4.0981299 7.99615379,2.97499998" id="Path-2" transform="translate(3.998077, 3.396174) scale(1, -1) translate(-3.998077, -3.396174) "></path>
            </g>
            <path d="M18.16845,5.2377205 C20.4787231,4.01895841 23.4848256,4.0426212 26.119421,5.2377205 C26.1560043,6.44195055 26.1361448,7.32634718 26.119421,8.92499987 C22.6896987,8.0687671 21.2386106,8.05757871 18.16845,8.92499987 C18.1209664,7.5418843 18.1545633,6.42201723 18.16845,5.2377205 Z" id="Rectangle" stroke-width="1.25999999" fill="#FFFFFF" stroke-linejoin="round"></path>
            <path d="M3.62998856,9.50279434 C5.94026168,7.9237773 8.94636422,7.95443459 11.5809595,9.50279434 C11.6175429,11.0629838 11.5976833,12.2088 11.5809595,14.2799998 C8.15123726,13.1706725 6.70014921,13.1561769 3.62998856,14.2799998 C3.58250492,12.4880479 3.61610184,11.0371584 3.62998856,9.50279434 Z" id="Rectangle" stroke-width="1.25999999" fill="#FFFFFF" stroke-linejoin="round"></path>
        </g>
    </g>
</svg>