<?xml version="1.0" encoding="UTF-8"?>
<svg width="60px" height="47px" viewBox="0 0 60 47" version="1.1" xmlns="http://www.w3.org/2000/svg" xmlns:xlink="http://www.w3.org/1999/xlink">
    <title>button/campaign/email</title>
    <g id="button/campaign/email" stroke="none" stroke-width="1" fill="none" fill-rule="evenodd">
        <g id="email">
            <rect id="Rectangle" stroke="#316FA1" stroke-width="0.629999995" fill="#59ADF0" x="0.314999998" y="0.314999998" width="59.2199996" height="46.6199996" rx="5"></rect>
            <g id="icons/email-plain" transform="translate(15.000000, 13.000000)" fill="#FFFFFF">
                <path d="M29.327586,3.04522427 L28.1891039,1.9551724 L17.4063978,12.2800178 C16.0334714,13.5945408 13.7997626,13.5945408 12.4268362,12.2800178 L1.64413016,1.9551724 L0.505648034,3.04522427 L8.55720814,10.7534482 L0.505648034,18.4625004 L1.64413016,19.551724 L9.69482515,11.8435001 L11.2892192,13.3692414 C12.2581401,14.2969451 13.5462859,14.8080104 14.916617,14.8080104 C16.2869481,14.8080104 17.5750939,14.2969451 18.5440148,13.3692414 L20.1384089,11.8435001 L28.1891039,19.551724 L29.327586,18.4625004 L21.2760259,10.7534482 L29.327586,3.04522427" id="Fill-3"></path>
                <path d="M26.7398578,21.5068964 L2.58772818,21.5068964 C1.16102737,21.5068964 0,20.3935009 0,19.0253314 L0,2.48156497 C0,1.11339548 1.16102737,1.42108547e-14 2.58772818,1.42108547e-14 L26.7398578,1.42108547e-14 C28.1665586,1.42108547e-14 29.327586,1.11339548 29.327586,2.48156497 L29.327586,19.0253314 C29.327586,20.3935009 28.1665586,21.5068964 26.7398578,21.5068964 L26.7398578,21.5068964 Z M2.58772818,1.65437665 C2.11244877,1.65437665 1.72515212,2.0257842 1.72515212,2.48156497 L1.72515212,19.0253314 C1.72515212,19.4811122 2.11244877,19.8525197 2.58772818,19.8525197 L26.7398578,19.8525197 C27.2151372,19.8525197 27.6024339,19.4811122 27.6024339,19.0253314 L27.6024339,2.48156497 C27.6024339,2.0257842 27.2151372,1.65437665 26.7398578,1.65437665 L2.58772818,1.65437665 L2.58772818,1.65437665 Z" id="Fill-4"></path>
            </g>
        </g>
    </g>
</svg>