<?xml version="1.0" encoding="UTF-8"?>
<svg width="60px" height="47px" viewBox="0 0 60 47" version="1.1" xmlns="http://www.w3.org/2000/svg" xmlns:xlink="http://www.w3.org/1999/xlink">
    <title>button/campaign/email-deselected</title>
    <g id="button/campaign/email-deselected" stroke="none" stroke-width="1" fill="none" fill-rule="evenodd">
        <g id="email">
            <rect id="Rectangle" fill="#CFCFCF" x="0" y="0" width="59.8499995" height="47.2499996" rx="5"></rect>
            <g id="Group" transform="translate(15.750000, 12.600000)" fill="#FFFFFF">
                <path d="M28.821938,3.09005187 L27.6834558,2 L16.9007498,12.3248454 C15.5278234,13.6393684 13.2941146,13.6393684 11.9211882,12.3248454 L1.13848212,2 L0,3.09005187 L8.05156011,10.7982758 L0,18.507328 L1.13848212,19.5965516 L9.18917712,11.8883277 L10.7835712,13.414069 C11.7524921,14.3417727 13.0406379,14.852838 14.410969,14.852838 C15.7813,14.852838 17.0694458,14.3417727 18.0383668,13.414069 L19.6327608,11.8883277 L27.6834558,19.5965516 L28.821938,18.507328 L20.7703778,10.7982758 L28.821938,3.09005187" id="Fill-3"></path>
                <path d="M26.7398578,21.5068964 L2.58772818,21.5068964 C1.16102737,21.5068964 0,20.3935009 0,19.0253314 L0,2.48156497 C0,1.11339548 1.16102737,0 2.58772818,0 L26.7398578,0 C28.1665586,0 29.327586,1.11339548 29.327586,2.48156497 L29.327586,19.0253314 C29.327586,20.3935009 28.1665586,21.5068964 26.7398578,21.5068964 L26.7398578,21.5068964 Z M2.58772818,1.65437665 C2.11244877,1.65437665 1.72515212,2.0257842 1.72515212,2.48156497 L1.72515212,19.0253314 C1.72515212,19.4811122 2.11244877,19.8525197 2.58772818,19.8525197 L26.7398578,19.8525197 C27.2151372,19.8525197 27.6024339,19.4811122 27.6024339,19.0253314 L27.6024339,2.48156497 C27.6024339,2.0257842 27.2151372,1.65437665 26.7398578,1.65437665 L2.58772818,1.65437665 L2.58772818,1.65437665 Z" id="Fill-4"></path>
            </g>
        </g>
    </g>
</svg>