<?xml version="1.0" encoding="UTF-8"?>
<svg width="60px" height="47px" viewBox="0 0 60 47" version="1.1" xmlns="http://www.w3.org/2000/svg" xmlns:xlink="http://www.w3.org/1999/xlink">
    <title>button/campaign/social-deselected</title>
    <g id="button/campaign/social-deselected" stroke="none" stroke-width="1" fill="none" fill-rule="evenodd">
        <g id="social">
            <rect id="Rectangle" fill="#CFCFCF" x="0" y="0" width="59.8499995" height="47.2499996" rx="5"></rect>
            <g id="Twitter" transform="translate(34.000000, 18.000000)" fill="#FFFFFF">
                <path d="M16,1.53896714 C15.4121031,1.8 14.7791278,1.97652582 14.1151611,2.05539906 C14.7932148,1.64976526 15.3134942,1.00657277 15.5586077,0.240375587 C14.9237542,0.615962441 14.2222222,0.889201878 13.4727945,1.03568075 C12.8755063,0.398122066 12.0218348,0 11.0770676,0 C9.26548101,0 7.79573869,1.46948357 7.79573869,3.28169014 C7.79573869,3.53896714 7.82391266,3.78873239 7.88026061,4.02910798 C5.15208077,3.89201878 2.73381464,2.58685446 1.11381112,0.599061033 C0.831132242,1.08544601 0.669601456,1.64976526 0.669601456,2.25070423 C0.669601456,3.38873239 1.24904619,4.39342723 2.12995246,4.98215962 C1.59276868,4.96619718 1.08563714,4.81690141 0.642366614,4.57276995 L0.642366614,4.61314554 C0.642366614,6.20375587 1.77402125,7.53051643 3.27663321,7.83098592 C3.00146739,7.90798122 2.71127546,7.94647887 2.4116922,7.94647887 C2.20038739,7.94647887 1.99377825,7.92676056 1.79374303,7.88826291 C2.21165698,9.1915493 3.42313788,10.1408451 4.86001057,10.1661972 C3.73680812,11.0469484 2.32059635,11.571831 0.783236485,11.571831 C0.518401127,11.571831 0.256383166,11.5568075 0,11.5267606 C1.45283794,12.456338 3.17896343,13 5.03187181,13 C11.0704936,13 14.3715443,8 14.3715443,3.6629108 C14.3715443,3.52018779 14.3687269,3.37746479 14.3630921,3.23755869 C15.0045196,2.77464789 15.5614251,2.1971831 16,1.53896714"></path>
            </g>
            <g id="Facebook/White" transform="translate(12.000000, 16.000000)" fill="#FFFFFF">
                <path d="M8.47988593,15.8759999 L0.876233319,15.8759999 C0.392161228,15.8759999 0,15.4835953 0,14.9997118 L0,0.876226519 C0,0.392219787 0.392222831,0 0.876233319,0 L14.9998282,0 C15.4837154,0 15.8759999,0.392219787 15.8759999,0.876226519 L15.8759999,14.9997118 C15.8759999,15.4836569 15.4836538,15.8759999 14.9998282,15.8759999 L10.9542101,15.8759999 L10.9542101,9.72793778 L13.0178308,9.72793778 L13.3268287,7.33192889 L10.9542101,7.33192889 L10.9542101,5.8022286 C10.9542101,5.10852874 11.146841,4.63579517 12.1415975,4.63579517 L13.4103616,4.63524075 L13.4103616,2.49223118 C13.1909337,2.46303184 12.4377821,2.39779535 11.5615487,2.39779535 C9.73226384,2.39779535 8.47988593,3.51439278 8.47988593,5.56493779 L8.47988593,7.33192889 L6.41096749,7.33192889 L6.41096749,9.72793778 L8.47988593,9.72793778 L8.47988593,15.8759999 L8.47988593,15.8759999 Z" id="Facebook"></path>
            </g>
            <g id="Facebook/White" transform="translate(12.000000, 16.000000)"></g>
        </g>
    </g>
</svg>