<?xml version="1.0" encoding="UTF-8"?>
<svg width="29px" height="22px" viewBox="0 0 29 22" version="1.1" xmlns="http://www.w3.org/2000/svg" xmlns:xlink="http://www.w3.org/1999/xlink">
    <title>icons/email-plain</title>
    <g id="icons/email-plain" stroke="none" stroke-width="1" fill="none" fill-rule="evenodd">
        <g fill="#FFFFFF">
            <path d="M28.3499998,3.04522427 L27.2494671,1.9551724 L16.8261846,12.2800178 C15.4990224,13.5945408 13.3397705,13.5945408 12.0126083,12.2800178 L1.58932582,1.9551724 L0.4887931,3.04522427 L8.27196787,10.7534482 L0.4887931,18.4625004 L1.58932582,19.551724 L9.37166432,11.8435001 L10.9129119,13.3692414 C11.8495355,14.2969451 13.0947431,14.8080104 14.4193964,14.8080104 C15.7440498,14.8080104 16.9892574,14.2969451 17.925881,13.3692414 L19.4671286,11.8435001 L27.2494671,19.551724 L28.3499998,18.4625004 L20.566825,10.7534482 L28.3499998,3.04522427" id="Fill-3"></path>
            <path d="M25.8485292,21.5068964 L2.50147057,21.5068964 C1.12232646,21.5068964 0,20.3935009 0,19.0253314 L0,2.48156497 C0,1.11339548 1.12232646,1.42108547e-14 2.50147057,1.42108547e-14 L25.8485292,1.42108547e-14 C27.2276733,1.42108547e-14 28.3499998,1.11339548 28.3499998,2.48156497 L28.3499998,19.0253314 C28.3499998,20.3935009 27.2276733,21.5068964 25.8485292,21.5068964 L25.8485292,21.5068964 Z M2.50147057,1.65437665 C2.04203381,1.65437665 1.66764705,2.0257842 1.66764705,2.48156497 L1.66764705,19.0253314 C1.66764705,19.4811122 2.04203381,19.8525197 2.50147057,19.8525197 L25.8485292,19.8525197 C26.307966,19.8525197 26.6823527,19.4811122 26.6823527,19.0253314 L26.6823527,2.48156497 C26.6823527,2.0257842 26.307966,1.65437665 25.8485292,1.65437665 L2.50147057,1.65437665 L2.50147057,1.65437665 Z" id="Fill-4"></path>
        </g>
    </g>
</svg>