<?xml version="1.0" encoding="UTF-8"?>
<svg width="29px" height="25px" viewBox="0 0 29 25" version="1.1" xmlns="http://www.w3.org/2000/svg" xmlns:xlink="http://www.w3.org/1999/xlink">
    <title>icons/sms-plain</title>
    <g id="icons/sms-plain" stroke="none" stroke-width="1" fill="none" fill-rule="evenodd">
        <g id="ic_textsms_48px" fill-rule="nonzero">
            <path d="M26.5,1 C26.914375,1 27.2894351,1.16771113 27.560862,1.43913803 C27.8322889,1.71056493 28,2.085625 28,2.5 L28,2.5 L28,17.5 C28,17.914375 27.8322889,18.2894351 27.560862,18.560862 C27.2894351,18.8322889 26.914375,19 26.5,19 L26.5,19 L7.71320377,19 L1.00100285,23.1951256 L1.0125,2.5 C1.0125,2.08443996 1.17807381,1.70779836 1.4488476,1.4356639 C1.71705893,1.16610478 2.08819439,1 2.5,1 L2.5,1 Z" id="Path" stroke="#FFFFFF" stroke-width="2"></path>
            <rect id="Rectangle" fill="#FFFFFF" x="6" y="8" width="4" height="4"></rect>
            <rect id="Rectangle" fill="#FFFFFF" x="13" y="8" width="4" height="4"></rect>
            <rect id="Rectangle" fill="#FFFFFF" x="20" y="8" width="4" height="4"></rect>
        </g>
    </g>
</svg>