<?xml version="1.0" encoding="UTF-8"?>
<svg width="24px" height="24px" viewBox="0 0 24 24" version="1.1" xmlns="http://www.w3.org/2000/svg" xmlns:xlink="http://www.w3.org/1999/xlink">
    <title>icons/youtube</title>
    <g id="icons/youtube" stroke="none" stroke-width="1" fill="none" fill-rule="evenodd">
        <g id="Group" transform="translate(0.000000, 4.000000)" fill="#9E9E9E" fill-rule="nonzero">
            <g id="logo-youtube">
                <path d="M23.775,3.825 C23.775,3.825 23.55,2.175 22.8375,1.425 C21.9375,0.4875 20.8875,0.45 20.4375,0.4125 C17.025,0.1875 12,0.1875 12,0.1875 L12,0.1875 C12,0.1875 6.975,0.1875 3.6,0.4125 C3.1125,0.45 2.1,0.4875 1.2,1.425 C0.4875,2.1375 0.2625,3.825 0.2625,3.825 C0.2625,3.825 0,5.775 0,7.725 L0,9.5625 C0,11.5125 0.225,13.4625 0.225,13.4625 C0.225,13.4625 0.45,15.1125 1.1625,15.8625 C2.0625,16.8 3.2625,16.8 3.825,16.875 C5.7375,17.0625 12,17.1 12,17.1 C12,17.1 17.025,17.1 20.4,16.8375 C20.8875,16.8 21.9,16.7625 22.8,15.825 C23.5125,15.1125 23.7375,13.425 23.7375,13.425 C23.7375,13.425 24,11.475 24,9.525 L24,7.6875 C24,5.775 23.775,3.825 23.775,3.825 Z M9.525,11.7375 L9.525,4.9875 L16.0125,8.3625 L9.525,11.7375 Z" id="Shape"></path>
            </g>
        </g>
    </g>
</svg>