<?xml version="1.0" encoding="UTF-8"?>
<svg width="30px" height="30px" viewBox="0 0 30 30" version="1.1" xmlns="http://www.w3.org/2000/svg" xmlns:xlink="http://www.w3.org/1999/xlink">
    <title>icons/more</title>
    <defs>
        <filter id="filter-1">
            <feColorMatrix in="SourceGraphic" type="matrix" values="0 0 0 0 1.000000 0 0 0 0 1.000000 0 0 0 0 1.000000 0 0 0 1.000000 0"></feColorMatrix>
        </filter>
    </defs>
    <g id="icons/more" stroke="none" stroke-width="1" fill="none" fill-rule="evenodd">
        <rect id="Rectangle" fill="#57B8B8" x="0" y="0" width="30" height="30"></rect>
        <g filter="url(#filter-1)" id="icons/search">
            <g transform="translate(6.000000, 6.000000)">
                <path d="M12.5999998,11.0879998 L11.7986398,11.0879998 L11.5214398,10.8107998 C12.5092798,9.66671984 13.1039998,8.17991986 13.1039998,6.55199989 C13.1039998,2.93327995 10.1707198,0 6.55199989,0 C2.93327995,0 0,2.93327995 0,6.55199989 C0,10.1707198 2.93327995,13.1039998 6.55199989,13.1039998 C8.17991986,13.1039998 9.66671984,12.5092798 10.8107998,11.5264798 L11.0879998,11.8036798 L11.0879998,12.5999998 L16.1279997,17.6299197 L17.6299197,16.1279997 L12.5999998,11.0879998 Z M6.55199989,11.0879998 C4.04711993,11.0879998 2.01599997,9.05687985 2.01599997,6.55199989 C2.01599997,4.04711993 4.04711993,2.01599997 6.55199989,2.01599997 C9.05687985,2.01599997 11.0879998,4.04711993 11.0879998,6.55199989 C11.0879998,9.05687985 9.05687985,11.0879998 6.55199989,11.0879998 Z" id="Shape" fill="#727272" fill-rule="nonzero"></path>
            </g>
        </g>
    </g>
</svg>