<?xml version="1.0" encoding="UTF-8"?>
<svg width="30px" height="30px" viewBox="0 0 30 30" version="1.1" xmlns="http://www.w3.org/2000/svg" xmlns:xlink="http://www.w3.org/1999/xlink">
    <title>icons/preview-desktop</title>
    <g id="icons/preview-desktop" stroke="none" stroke-width="1" fill="none" fill-rule="evenodd">
        <rect id="Rectangle" stroke="#D9D9D9" fill="#F3F3F3" x="0.5" y="0.5" width="29" height="29" rx="3"></rect>
        <g id="pc-monitor" transform="translate(5.000000, 5.000000)" fill="#57B8B8" fill-rule="nonzero">
            <path d="M19.954023,0.5 L0.643678161,0.5 C0.288367816,0.5 -8.34887715e-14,0.788367816 -8.34887715e-14,1.14367816 L-8.34887715e-14,15.9482759 C-8.34887715e-14,16.3035862 0.288367816,16.591954 0.643678161,16.591954 L9.01149425,16.591954 L9.01149425,18.5229885 L5.79310345,18.5229885 C5.4377931,18.5229885 5.14942529,18.8113563 5.14942529,19.1666667 C5.14942529,19.521977 5.4377931,19.8103448 5.79310345,19.8103448 L14.8045977,19.8103448 C15.159908,19.8103448 15.4482759,19.521977 15.4482759,19.1666667 C15.4482759,18.8113563 15.159908,18.5229885 14.8045977,18.5229885 L11.5862069,18.5229885 L11.5862069,16.591954 L19.954023,16.591954 C20.3093333,16.591954 20.5977011,16.3035862 20.5977011,15.9482759 L20.5977011,1.14367816 C20.5977011,0.788367816 20.3093333,0.5 19.954023,0.5 Z M19.3103448,15.3045977 L1.28735632,15.3045977 L1.28735632,1.78735632 L19.3103448,1.78735632 L19.3103448,15.3045977 Z" id="Shape"></path>
        </g>
    </g>
</svg>