<?xml version="1.0" encoding="UTF-8"?>
<svg width="30px" height="30px" viewBox="0 0 30 30" version="1.1" xmlns="http://www.w3.org/2000/svg" xmlns:xlink="http://www.w3.org/1999/xlink">
    <title>icons/preview-mobile</title>
    <g id="icons/preview-mobile" stroke="none" stroke-width="1" fill="none" fill-rule="evenodd">
        <rect id="Rectangle" stroke="#D9D9D9" fill="#F3F3F3" x="0.5" y="0.5" width="29" height="29" rx="3"></rect>
        <g id="phone-camera-front" transform="translate(8.500000, 5.000000)" fill="#57B8B8" fill-rule="nonzero">
            <path d="M11.6475096,0 L1.83908046,0 C0.823384368,0 0,0.853880085 0,1.90719455 L0,18.436214 C0,19.4895285 0.823384368,20.3434085 1.83908046,20.3434085 L11.6475096,20.3434085 C12.6632057,20.3434085 13.48659,19.4895285 13.48659,18.436214 L13.48659,1.90719455 C13.48659,0.853880085 12.6632057,0 11.6475096,0 Z M12.2605364,17.164751 C12.2605364,17.5158558 11.9860749,17.8004825 11.6475096,17.8004825 L1.83908046,17.8004825 C1.5005151,17.8004825 1.22605364,17.5158558 1.22605364,17.164751 L1.22605364,3.17865758 C1.22605364,2.82755276 1.5005151,2.54292607 1.83908046,2.54292607 L11.6475096,2.54292607 C11.9860749,2.54292607 12.2605364,2.82755276 12.2605364,3.17865758 L12.2605364,17.164751 Z" id="Shape"></path>
            <ellipse id="Oval" cx="6.74329502" cy="4.45012062" rx="1" ry="1"></ellipse>
        </g>
    </g>
</svg>